<svg width="512" height="512" xmlns:xlink="http://www.w3.org/1999/xlink" xmlns="http://www.w3.org/2000/svg"><defs><clipPath id="e"><use xlink:href="#a" clip-rule="evenodd"/></clipPath><clipPath id="f"><use xlink:href="#b"/></clipPath><clipPath id="g"><use xlink:href="#c"/></clipPath><clipPath id="h"><use xlink:href="#d"/></clipPath><path d="M0 0h512v512H0V0z" id="b"/><path d="M77.005 0h189.131a25.603 25.603 0 0121.284 11.377 25.011 25.011 0 011.292 2.154c.197.37.385.744.565 1.123a26.483 26.483 0 01.96 2.32 25.074 25.074 0 01.729 2.404 24.572 24.572 0 01.492 2.464 26.088 26.088 0 01.276 3.756v183.566c0 .383-.009.767-.029 1.15a23.17 23.17 0 01-1.341 6.75 23.583 23.583 0 01-3.953 6.977c-.243.297-.494.588-.753.872a22.296 22.296 0 01-1.626 1.628 23.127 23.127 0 01-1.78 1.459c-.308.229-.622.45-.94.664a24.093 24.093 0 01-1.975 1.183 23.539 23.539 0 01-3.154 1.398 23.332 23.332 0 01-6.752 1.343 25.92 25.92 0 01-1.15.029h-.003c-.384 0-.767.009-1.151.027a24.513 24.513 0 00-2.29.226c-.38.056-.758.122-1.135.198a22.729 22.729 0 00-3.324.919c-.362.129-.721.267-1.076.415a24.517 24.517 0 00-2.08.983 23.63 23.63 0 00-6.322 4.934 23.918 23.918 0 00-2.739 3.693 23.03 23.03 0 00-1.083 2.03 22.474 22.474 0 00-.881 2.126 23.255 23.255 0 00-1.343 6.75c-.02.383-.029.767-.029 1.15v.004a23.307 23.307 0 01-.703 5.698 22.576 22.576 0 01-.668 2.204 24.739 24.739 0 01-.88 2.126 22.412 22.412 0 01-1.086 2.029 23.054 23.054 0 01-1.278 1.913 23.995 23.995 0 01-1.459 1.781c-.259.284-.524.562-.796.832-.27.272-.548.537-.832.794a24.031 24.031 0 01-1.78 1.461c-.308.229-.621.449-.941.662-.318.214-.643.419-.973.616a22.412 22.412 0 01-2.029 1.086 24.739 24.739 0 01-2.126.88 23.658 23.658 0 01-6.75 1.343c-.384.019-.768.028-1.152.028H25.598a26.311 26.311 0 01-2.509-.123 24.87 24.87 0 01-2.485-.369 25.725 25.725 0 01-3.63-1.005 25.761 25.761 0 01-4.536-2.145c-.36-.215-.713-.439-1.061-.673-.349-.232-.691-.473-1.028-.723a26.16 26.16 0 01-2.852-2.46 24.89 24.89 0 01-1.686-1.862 25.282 25.282 0 01-2.788-4.171 25.212 25.212 0 01-1.074-2.271 25.351 25.351 0 01-.847-2.366 25.392 25.392 0 01-.979-4.922A25.507 25.507 0 010 253.926V77.648a25.58 25.58 0 013.642-13.16 25.668 25.668 0 013.856-4.941 25.55 25.55 0 016.033-4.475 25.584 25.584 0 0112.067-3.023h.21a25.67 25.67 0 006.22-.767 25.437 25.437 0 004.725-1.69 25.695 25.695 0 005.295-3.353 25.682 25.682 0 004.321-4.539 25.289 25.289 0 002.015-3.182 25.472 25.472 0 001.92-4.636 25.692 25.692 0 001.072-6.175c.02-.418.03-.837.03-1.256v-.853a25.545 25.545 0 011.497-8.623 25.3 25.3 0 011.526-3.444 25.558 25.558 0 016.337-7.72 25.637 25.637 0 018.808-4.709A25.633 25.633 0 0177.005 0z" id="c"/><path d="M196.876 8.767l.554.499a33.95 33.95 0 014.509 4.943 33.256 33.256 0 011.87 2.779 33.924 33.924 0 012.881 6.039 34.131 34.131 0 011.997 13.167 34.378 34.378 0 01-.598 4.986 33.86 33.86 0 01-1.324 4.844 33.682 33.682 0 01-1.271 3.099 34.826 34.826 0 01-1.57 2.959 34.329 34.329 0 01-1.852 2.791 33.788 33.788 0 01-2.116 2.596L51.284 222.587 0 176.411 148.672 11.293a34.11 34.11 0 013.626-3.475 34.85 34.85 0 012.684-2.004 33.876 33.876 0 014.361-2.49 33.7 33.7 0 013.091-1.291 33.725 33.725 0 013.202-.983 33.865 33.865 0 014.945-.875 34.034 34.034 0 018.354.178 34.017 34.017 0 016.496 1.605 34.552 34.552 0 013.098 1.271 33.75 33.75 0 012.959 1.57 33.894 33.894 0 015.388 3.968z" id="d"/><path id="a" d="M0 0h512v512H0z"/></defs><g clip-path="url(#e)"><path d="M0 0h512v512H0V0z" fill="none"/><g clip-path="url(#f)"><path d="M150.538 60.757h285.557a25.58 25.58 0 0112.068 3.023 26.281 26.281 0 012.154 1.291 25.282 25.282 0 012.017 1.496 25.19 25.19 0 012.73 2.598 26.161 26.161 0 011.592 1.942c.25.336.491.679.723 1.027.234.348.458.702.673 1.061a26.68 26.68 0 011.184 2.216 26.55 26.55 0 01.961 2.32 26.248 26.248 0 01.73 2.405 25.725 25.725 0 01.767 6.22v274.752a26.288 26.288 0 01-.123 2.51 24.855 24.855 0 01-.369 2.484 25.852 25.852 0 01-.61 2.437 25.607 25.607 0 01-9.247 13.131 26.001 26.001 0 01-4.305 2.58c-.379.18-.76.348-1.148.507a24.473 24.473 0 01-2.366.847 25.184 25.184 0 01-3.674.826 25.918 25.918 0 01-2.5.246c-.419.02-.838.03-1.257.03h-14.534a26.353 26.353 0 00-2.508.123c-.417.042-.832.094-1.246.156a25.42 25.42 0 00-2.465.49 25.539 25.539 0 00-8.002 3.546 26.05 26.05 0 00-2.017 1.497c-.325.265-.642.538-.95.821a24.81 24.81 0 00-2.599 2.727 25.305 25.305 0 00-2.169 3.08 26.06 26.06 0 00-1.693 3.362 26.491 26.491 0 00-.846 2.366c-.122.402-.234.805-.335 1.212a25.993 25.993 0 00-.643 3.71 25.038 25.038 0 00-.125 2.509v14.534a25.097 25.097 0 01-.123 2.51 26.03 26.03 0 01-.368 2.483c-.082.411-.174.82-.275 1.226a25.596 25.596 0 01-24.832 19.379H78.505a25.06 25.06 0 01-2.51-.123 26.088 26.088 0 01-2.484-.368 25.711 25.711 0 01-2.437-.61 26.261 26.261 0 01-2.365-.848 25.38 25.38 0 01-3.364-1.693 25.011 25.011 0 01-2.09-1.396 25.168 25.168 0 01-4.539-4.321 24.586 24.586 0 01-1.495-2.018 25.56 25.56 0 01-4.284-12.965c-.02-.419-.03-.838-.03-1.256V159.29a25.6 25.6 0 0125.598-25.598H99.34a25.54 25.54 0 007.431-1.103 25.442 25.442 0 004.636-1.92 25.493 25.493 0 005.124-3.608 25.745 25.745 0 003.37-3.719 25.735 25.735 0 002.58-4.304 25.655 25.655 0 001.966-5.95 25.644 25.644 0 00.492-4.994V86.356a25.545 25.545 0 011.102-7.431 25.526 25.526 0 012.54-5.73 25.633 25.633 0 016.707-7.4 25.545 25.545 0 016.625-3.541 25.658 25.658 0 017.368-1.466c.418-.02.837-.03 1.256-.03h0z" fill="#36C38E" fill-rule="evenodd" stroke="#36C38E"/><path d="M163.048 81.467h251.437a25.58 25.58 0 0113.16 3.642 24.946 24.946 0 012.09 1.395 25.99 25.99 0 011.943 1.594 25.704 25.704 0 015.948 8.022 26.55 26.55 0 01.961 2.321 26.248 26.248 0 01.73 2.404 25.67 25.67 0 01.767 6.22v241.728a26.353 26.353 0 01-.123 2.508 24.712 24.712 0 01-.369 2.485 25.852 25.852 0 01-.61 2.437 26.413 26.413 0 01-.847 2.366 26.69 26.69 0 01-1.074 2.27 25.087 25.087 0 01-1.292 2.155 25.014 25.014 0 01-1.495 2.017 25.729 25.729 0 01-1.688 1.862c-.296.296-.599.585-.909.867a26.575 26.575 0 01-1.943 1.593c-.336.25-.679.49-1.027.723-.348.234-.702.458-1.062.673a24.477 24.477 0 01-2.215 1.184 24.892 24.892 0 01-2.32.96 26.413 26.413 0 01-2.403.731 27.14 27.14 0 01-2.465.49 24.712 24.712 0 01-2.5.246c-.419.02-.838.03-1.257.03h-7.873a25.038 25.038 0 00-2.51.124 27.638 27.638 0 00-2.485.368c-.41.082-.819.174-1.225.277a24.847 24.847 0 00-2.403.729 26.136 26.136 0 00-3.444 1.525 26.043 26.043 0 00-3.182 2.016 25.337 25.337 0 00-2.85 2.459 25.627 25.627 0 00-3.186 3.879 25.984 25.984 0 00-2.366 4.426 25.982 25.982 0 00-.846 2.365c-.12.402-.232.806-.335 1.212a27.057 27.057 0 00-.489 2.463 25.106 25.106 0 00-.246 2.5c-.02.419-.03.837-.03 1.256v7.875a25.097 25.097 0 01-.125 2.508 25.992 25.992 0 01-.644 3.71 25.9 25.9 0 01-.334 1.213 26.387 26.387 0 01-1.355 3.514 26.731 26.731 0 01-1.857 3.276 28.34 28.34 0 01-.724 1.028 24.843 24.843 0 01-1.594 1.94c-.28.31-.569.615-.865.912a26.613 26.613 0 01-2.852 2.459c-.337.249-.679.49-1.028.724a25.582 25.582 0 01-5.597 2.817 25.596 25.596 0 01-8.624 1.497H98.314a25.06 25.06 0 01-2.51-.125 26.088 26.088 0 01-2.484-.368 24.554 24.554 0 01-2.437-.61 25.061 25.061 0 01-2.365-.846 25.38 25.38 0 01-3.365-1.693c-.359-.216-.713-.44-1.061-.672a24.843 24.843 0 01-2.97-2.318c-.31-.281-.613-.57-.91-.865a25.802 25.802 0 01-1.686-1.862 26.227 26.227 0 01-2.169-3.079 25.686 25.686 0 01-3.15-8.167 25.117 25.117 0 01-.368-2.485 25.698 25.698 0 01-.124-2.508V172.609a25.597 25.597 0 0125.599-25.598h13.538a25.545 25.545 0 007.43-1.103 25.677 25.677 0 005.73-2.54 25.6 25.6 0 0010.942-13.332 25.494 25.494 0 001.373-6.115 25.585 25.585 0 00.123-2.509v-14.347a25.67 25.67 0 01.767-6.22 25.61 25.61 0 0112.764-16.356 25.617 25.617 0 0112.067-3.022z" fill="#035841" fill-rule="evenodd"/><path d="M187.538 117.166H376.67a25.603 25.603 0 0121.284 11.377 25.011 25.011 0 011.292 2.154c.197.37.385.744.565 1.123a26.483 26.483 0 01.96 2.32 25.074 25.074 0 01.73 2.404 24.572 24.572 0 01.491 2.464 26.088 26.088 0 01.276 3.756V326.33c0 .383-.009.767-.029 1.15a23.17 23.17 0 01-1.34 6.75 23.583 23.583 0 01-3.954 6.977c-.243.297-.494.588-.753.872a22.296 22.296 0 01-1.626 1.628 23.127 23.127 0 01-1.78 1.459c-.308.229-.622.45-.94.664a24.093 24.093 0 01-1.975 1.183 23.539 23.539 0 01-3.154 1.398 23.332 23.332 0 01-6.752 1.343 25.92 25.92 0 01-1.15.029h-.003c-.384 0-.767.009-1.15.027a24.513 24.513 0 00-2.29.226c-.38.056-.759.122-1.136.198a22.729 22.729 0 00-3.324.919c-.362.129-.72.267-1.076.415a24.517 24.517 0 00-2.08.983 23.63 23.63 0 00-6.322 4.934 23.918 23.918 0 00-2.739 3.693 23.03 23.03 0 00-1.083 2.03 22.474 22.474 0 00-.88 2.126 23.255 23.255 0 00-1.344 6.75c-.02.383-.029.767-.029 1.15v.004a23.307 23.307 0 01-.703 5.698 22.576 22.576 0 01-.668 2.204 24.739 24.739 0 01-.88 2.126 22.412 22.412 0 01-1.086 2.029 23.054 23.054 0 01-1.278 1.913 23.995 23.995 0 01-1.459 1.781c-.259.284-.524.562-.796.832-.27.272-.548.537-.832.794a24.031 24.031 0 01-1.78 1.461c-.308.229-.62.449-.94.662-.319.214-.644.419-.974.616a22.412 22.412 0 01-2.029 1.086 24.739 24.739 0 01-2.126.88 23.658 23.658 0 01-6.75 1.343c-.384.019-.768.028-1.152.028H136.132a26.311 26.311 0 01-2.51-.123 24.87 24.87 0 01-2.485-.369 25.725 25.725 0 01-3.63-1.005 25.761 25.761 0 01-4.536-2.145c-.359-.215-.713-.439-1.061-.673a26.823 26.823 0 01-2.018-1.495 26.16 26.16 0 01-1.861-1.688 24.89 24.89 0 01-1.687-1.862 25.282 25.282 0 01-2.788-4.171 25.212 25.212 0 01-1.074-2.271 25.351 25.351 0 01-.847-2.366 25.392 25.392 0 01-.979-4.922 25.507 25.507 0 01-.123-2.509V194.814a25.58 25.58 0 013.642-13.16 25.668 25.668 0 013.856-4.941 25.55 25.55 0 016.034-4.475 25.584 25.584 0 0112.067-3.023h.21a25.67 25.67 0 006.22-.767 25.437 25.437 0 004.724-1.69 25.695 25.695 0 005.295-3.353 25.682 25.682 0 004.322-4.539 25.289 25.289 0 002.014-3.182 25.472 25.472 0 001.92-4.636 25.692 25.692 0 001.072-6.175c.02-.418.031-.837.031-1.256v-.853a25.545 25.545 0 011.497-8.623 25.3 25.3 0 011.526-3.444 25.558 25.558 0 016.336-7.72 25.637 25.637 0 018.809-4.709 25.633 25.633 0 017.43-1.102z" fill="#023E2E" fill-rule="evenodd"/><path d="M187.538 117.166H376.67a25.603 25.603 0 0121.284 11.377 25.011 25.011 0 011.292 2.154c.197.37.385.744.565 1.123a26.483 26.483 0 01.96 2.32 25.074 25.074 0 01.73 2.404 24.572 24.572 0 01.491 2.464 26.088 26.088 0 01.276 3.756V326.33c0 .383-.009.767-.029 1.15a23.17 23.17 0 01-1.34 6.75 23.583 23.583 0 01-3.954 6.977c-.243.297-.494.588-.753.872a22.296 22.296 0 01-1.626 1.628 23.127 23.127 0 01-1.78 1.459c-.308.229-.622.45-.94.664a24.093 24.093 0 01-1.975 1.183 23.539 23.539 0 01-3.154 1.398 23.332 23.332 0 01-6.752 1.343 25.92 25.92 0 01-1.15.029h-.003c-.384 0-.767.009-1.15.027a24.513 24.513 0 00-2.29.226c-.38.056-.759.122-1.136.198a22.729 22.729 0 00-3.324.919c-.362.129-.72.267-1.076.415a24.517 24.517 0 00-2.08.983 23.63 23.63 0 00-6.322 4.934 23.918 23.918 0 00-2.739 3.693 23.03 23.03 0 00-1.083 2.03 22.474 22.474 0 00-.88 2.126 23.255 23.255 0 00-1.344 6.75c-.02.383-.029.767-.029 1.15v.004a23.307 23.307 0 01-.703 5.698 22.576 22.576 0 01-.668 2.204 24.739 24.739 0 01-.88 2.126 22.412 22.412 0 01-1.086 2.029 23.054 23.054 0 01-1.278 1.913 23.995 23.995 0 01-1.459 1.781c-.259.284-.524.562-.796.832-.27.272-.548.537-.832.794a24.031 24.031 0 01-1.78 1.461c-.308.229-.62.449-.94.662-.319.214-.644.419-.974.616a22.412 22.412 0 01-2.029 1.086 24.739 24.739 0 01-2.126.88 23.658 23.658 0 01-6.75 1.343c-.384.019-.768.028-1.152.028H136.132a26.311 26.311 0 01-2.51-.123 24.87 24.87 0 01-2.485-.369 25.725 25.725 0 01-3.63-1.005 25.761 25.761 0 01-4.536-2.145c-.359-.215-.713-.439-1.061-.673a26.823 26.823 0 01-2.018-1.495 26.16 26.16 0 01-1.861-1.688 24.89 24.89 0 01-1.687-1.862 25.282 25.282 0 01-2.788-4.171 25.212 25.212 0 01-1.074-2.271 25.351 25.351 0 01-.847-2.366 25.392 25.392 0 01-.979-4.922 25.507 25.507 0 01-.123-2.509V194.814a25.58 25.58 0 013.642-13.16 25.668 25.668 0 013.856-4.941 25.55 25.55 0 016.034-4.475 25.584 25.584 0 0112.067-3.023h.21a25.67 25.67 0 006.22-.767 25.437 25.437 0 004.724-1.69 25.695 25.695 0 005.295-3.353 25.682 25.682 0 004.322-4.539 25.289 25.289 0 002.014-3.182 25.472 25.472 0 001.92-4.636 25.692 25.692 0 001.072-6.175c.02-.418.031-.837.031-1.256v-.853a25.545 25.545 0 011.497-8.623 25.3 25.3 0 011.526-3.444 25.558 25.558 0 016.336-7.72 25.637 25.637 0 018.809-4.709 25.633 25.633 0 017.43-1.102z" fill="none"/><g clip-path="url(#g)" transform="translate(110.533 117.166)"><path d="M206.332 124.276c3.529 1.329 7.444 1.993 11.746 1.993 6.235 0 11.756-1.063 16.565-3.19 4.809-2.126 9.002-4.942 12.579-8.446 3.576-3.504 6.573-7.516 8.989-12.035a79.747 79.747 0 005.873-14.029c1.499-4.833 2.574-9.618 3.227-14.355.652-4.736.978-9.062.978-12.977 0-5.607-.7-10.476-2.102-14.609-1.402-4.132-3.36-7.564-5.873-10.295-2.513-2.73-5.546-4.76-9.098-6.09-3.552-1.329-7.455-1.994-11.71-1.994-6.235 0-11.756 1.064-16.565 3.19-4.81 2.127-9.002 4.942-12.58 8.447-3.575 3.504-6.584 7.515-9.026 12.035a78.6 78.6 0 00-5.908 13.992c-1.498 4.81-2.574 9.594-3.226 14.355-.653 4.761-.98 9.099-.98 13.014 0 5.607.702 10.476 2.104 14.609 1.4 4.132 3.37 7.564 5.907 10.295 2.539 2.73 5.572 4.76 9.1 6.09zm-181.25.326l3.117-15.733h24.215l12.18-60.9-23.49 11.6-3.697-14.427 33.277-15.878h15.733L70.539 108.87h20.808l-3.118 15.733H25.082zm81.635 0l3.117-15.733h24.215l12.18-60.9-23.49 11.6-3.697-14.427 33.278-15.878h15.732l-15.878 79.605h20.808l-3.118 15.733h-63.147zm117.92-78.518c3.022-2.271 6.418-3.407 10.189-3.407 3.769 0 6.765 1.1 8.989 3.299 2.223 2.199 3.625 5.546 4.205 10.041l-39.875 25.23a82.794 82.794 0 013.117-13.847c1.45-4.592 3.287-8.725 5.51-12.398 2.224-3.673 4.846-6.646 7.866-8.918zm3.155 64.199c-2.175 1.04-4.52 1.559-7.033 1.559-3.77 0-6.766-1.088-8.99-3.263-2.222-2.175-3.648-5.534-4.278-10.077l39.948-25.303a98.023 98.023 0 01-1.921 9.39 73.254 73.254 0 01-2.9 8.953 55.394 55.394 0 01-3.915 7.975c-1.473 2.465-3.116 4.616-4.93 6.452-1.811 1.837-3.805 3.275-5.981 4.314zM136.442 247.443c-4.302 0-8.217-.665-11.745-1.994-3.529-1.329-6.562-3.359-9.099-6.09-2.538-2.731-4.507-6.163-5.909-10.295-1.402-4.133-2.102-9.003-2.102-14.61 0-3.913.326-8.251.978-13.013.653-4.76 1.728-9.545 3.227-14.355a78.57 78.57 0 015.908-13.992c2.441-4.52 5.45-8.53 9.027-12.035 3.577-3.504 7.769-6.32 12.579-8.446 4.809-2.127 10.33-3.19 16.566-3.19 4.253 0 8.156.664 11.709 1.994 3.552 1.329 6.585 3.359 9.098 6.09 2.514 2.73 4.47 6.162 5.873 10.294 1.402 4.133 2.102 9.003 2.102 14.61 0 3.914-.326 8.24-.978 12.977-.653 4.736-1.728 9.521-3.227 14.354a79.741 79.741 0 01-5.872 14.03c-2.417 4.518-5.413 8.53-8.99 12.035-3.577 3.504-7.77 6.32-12.58 8.446-4.808 2.126-10.33 3.19-16.565 3.19zm-111.36-1.668l3.117-15.732h24.215l12.18-60.9-23.49 11.6-3.697-14.428 33.277-15.877h15.733l-15.878 79.605h20.808l-3.118 15.732H25.082zm166.388-15.732l-3.118 15.732H251.5l3.118-15.732H233.81l15.877-79.605h-15.732l-33.278 15.877 3.698 14.428 23.489-11.6-12.18 60.9H191.47zm-38.281-66.193c-3.77 0-7.165 1.136-10.186 3.408-3.021 2.271-5.643 5.244-7.866 8.917-2.223 3.674-4.06 7.806-5.51 12.398a82.918 82.918 0 00-3.118 13.848l39.876-25.23c-.58-4.496-1.982-7.843-4.205-10.042-2.224-2.2-5.22-3.299-8.991-3.299zm-14.064 69.164c2.513 0 4.857-.52 7.032-1.558 2.175-1.039 4.169-2.476 5.98-4.313 1.814-1.837 3.457-3.988 4.93-6.452a55.445 55.445 0 003.916-7.976 73.047 73.047 0 002.9-8.953 98.002 98.002 0 001.922-9.39l-39.948 25.303c.628 4.543 2.054 7.902 4.278 10.078 2.223 2.174 5.22 3.261 8.99 3.261z" fill="#FFF" fill-rule="evenodd"/></g><g><path d="M486.081 199.412l.554.499a33.95 33.95 0 014.51 4.943c.334.447.657.903.968 1.366a33.924 33.924 0 013.782 7.452 34.131 34.131 0 011.997 13.167 34.378 34.378 0 01-.598 4.986 33.86 33.86 0 01-1.324 4.844 33.682 33.682 0 01-1.27 3.099 34.826 34.826 0 01-1.57 2.959 34.329 34.329 0 01-1.853 2.791 33.788 33.788 0 01-2.116 2.596L340.49 413.232l-51.284-46.176 148.672-165.118a34.11 34.11 0 013.626-3.475 34.85 34.85 0 012.684-2.003 33.876 33.876 0 014.361-2.49 33.7 33.7 0 013.091-1.292 33.725 33.725 0 013.202-.983 33.865 33.865 0 014.945-.875 34.034 34.034 0 018.354.178 34.017 34.017 0 016.496 1.605 34.552 34.552 0 013.098 1.271 33.75 33.75 0 012.96 1.57 33.894 33.894 0 015.387 3.968z" fill="#FDB600" fill-rule="evenodd"/><path d="M486.081 199.412l.554.499a33.95 33.95 0 014.51 4.943c.334.447.657.903.968 1.366a33.924 33.924 0 013.782 7.452 34.131 34.131 0 011.997 13.167 34.378 34.378 0 01-.598 4.986 33.86 33.86 0 01-1.324 4.844 33.682 33.682 0 01-1.27 3.099 34.826 34.826 0 01-1.57 2.959 34.329 34.329 0 01-1.853 2.791 33.788 33.788 0 01-2.116 2.596L340.49 413.232l-51.284-46.176 148.672-165.118a34.11 34.11 0 013.626-3.475 34.85 34.85 0 012.684-2.003 33.876 33.876 0 014.361-2.49 33.7 33.7 0 013.091-1.292 33.725 33.725 0 013.202-.983 33.865 33.865 0 014.945-.875 34.034 34.034 0 018.354.178 34.017 34.017 0 016.496 1.605 34.552 34.552 0 013.098 1.271 33.75 33.75 0 012.96 1.57 33.894 33.894 0 015.387 3.968z" fill="none"/><g clip-path="url(#h)" transform="translate(289.205 190.645)"><g fill-rule="evenodd"><path d="M122.952 31.22l58.882 54.908-7.844 8.411-58.882-54.908 7.844-8.411z" fill="#B6C5CD"/><path d="M175.865-10.58l41.857 37.687a8.697 8.697 0 011.127 1.236 8.597 8.597 0 011.187 2.204 8.594 8.594 0 01.497 2.454 8.597 8.597 0 01-.237 2.493 8.279 8.279 0 01-.39 1.193 8.527 8.527 0 01-1.553 2.47l-39.97 44.391-54.537-49.105 39.97-44.392a8.518 8.518 0 015.061-2.726 8.545 8.545 0 015.277.898 8.507 8.507 0 011.711 1.197z" fill="#C6527A"/></g></g><path d="M279.4 431.627l6.523-56.912 48 43.219-54.523 13.693z" fill="#FFFDAF" fill-rule="evenodd"/></g></g></g></svg>