<?xml version="1.0" encoding="UTF-8"?>
<svg version="1.1" viewBox="0 0 484.7 484.7" xmlns="http://www.w3.org/2000/svg" xmlns:cc="http://creativecommons.org/ns#" xmlns:dc="http://purl.org/dc/elements/1.1/" xmlns:rdf="http://www.w3.org/1999/02/22-rdf-syntax-ns#">
 <metadata>
  <rdf:RDF>
   <cc:Work rdf:about="">
    <dc:format>image/svg+xml</dc:format>
    <dc:type rdf:resource="http://purl.org/dc/dcmitype/StillImage"/>
    <dc:title>pluginicon</dc:title>
   </cc:Work>
  </rdf:RDF>
 </metadata>
 <defs>
  <style>.cls-1{stroke:#000;fill:url(#radial-gradient);}.cls-1,.cls-2,.cls-3,.cls-4,.cls-5{stroke-miterlimit:10;}.cls-2{stroke:#a67c52;fill:url(#radial-gradient-2);}.cls-2,.cls-3,.cls-4,.cls-5{stroke-width:4px;}.cls-3{fill:#ff647e;stroke:#ff3f70;}.cls-4{fill:none;}.cls-4,.cls-5{stroke:#e6e6e6;}.cls-5,.cls-6{fill:#fff;}</style>
  <radialGradient id="radial-gradient" cx="242.35" cy="242.35" r="241.85" gradientUnits="userSpaceOnUse">
   <stop stop-color="#6441a5" offset=".02"/>
   <stop stop-color="#6340a3" offset=".46"/>
   <stop stop-color="#5f3c9c" offset=".62"/>
   <stop stop-color="#583591" offset=".74"/>
   <stop stop-color="#4d2b80" offset=".83"/>
   <stop stop-color="#401e6a" offset=".91"/>
   <stop stop-color="#300e4f" offset=".98"/>
   <stop stop-color="#2a0845" offset="1"/>
  </radialGradient>
  <radialGradient id="radial-gradient-2" cx="220" cy="224.83" r="160.7" gradientUnits="userSpaceOnUse">
   <stop stop-color="#ffdc48" offset=".58"/>
   <stop stop-color="#ffd741" offset=".78"/>
   <stop stop-color="#fc3" offset="1"/>
  </radialGradient>
 </defs>
 <title>pluginicon</title>
 <g transform="matrix(1.7737 0 0 1.7737 -1016.5 -497.9)">
  <g>
   <rect x="722.06" y="366.4" width="121.08" height="107.84" fill="#575756" style="paint-order:stroke fill markers"/>
   <path d="m643.48 463.56c-3.189 0-5.776-2.586-5.776-5.775v-35.699c0-3.189 2.587-5.775 5.776-5.775s5.775 2.586 5.775 5.775v35.699c0 3.189-2.586 5.775-5.775 5.775z" fill="#2b3aad"/>
   <path d="m643.48 389.88c3.473 0 6.3 2.826 6.3 6.301 0 3.474-2.827 6.3-6.3 6.3-3.475 0-6.299-2.826-6.299-6.3 0-3.475 2.824-6.301 6.299-6.301m0-11.549c-9.859 0-17.85 7.99-17.85 17.85 0 9.857 7.99 17.85 17.85 17.85 9.857 0 17.85-7.992 17.85-17.85-1e-3 -9.86-7.993-17.85-17.85-17.85z" fill="#2b3aad"/>
  </g>
  <g fill="#575756">
   <path d="m595.14 389.88c3.475 0 6.302 2.826 6.302 6.301 0 3.474-2.827 6.3-6.302 6.3-3.473 0-6.298-2.826-6.298-6.3 0-3.475 2.825-6.301 6.298-6.301m0-11.549c-9.857 0-17.849 7.99-17.849 17.85 0 9.858 7.991 17.85 17.849 17.85 9.859 0 17.85-7.991 17.85-17.85-1e-3 -9.86-7.991-17.85-17.85-17.85z"/>
   <path d="m605.64 418.23c9.266 0 16.802 7.535 16.802 16.799 0 9.265-7.536 16.801-16.802 16.801-9.262 0-16.798-7.536-16.798-16.801 0-9.263 7.536-16.799 16.798-16.799m0-11.55c-15.656 0-28.349 12.693-28.349 28.35 0 15.659 12.692 28.351 28.349 28.351 15.659 0 28.35-12.691 28.35-28.351-1e-3 -15.657-12.691-28.35-28.35-28.35z"/>
   <path d="m582.89 463.56c-3.191 0-5.775-2.586-5.775-5.775v-73.5c0-3.189 2.584-5.775 5.775-5.775 3.189 0 5.773 2.586 5.773 5.775v73.5c0 3.189-2.584 5.775-5.773 5.775z"/>
   <path d="m659.89 463.56c-3.191 0-5.775-2.586-5.775-5.775v-39.396c0-3.188 2.584-5.774 5.775-5.774 3.19 0 5.775 2.586 5.775 5.774v39.396c0 3.189-2.585 5.775-5.775 5.775z"/>
   <path d="m708.9 463.56c-3.189 0-5.774-2.586-5.774-5.775v-73.5c0-3.189 2.585-5.775 5.774-5.775s5.776 2.586 5.776 5.775v73.5c1e-3 3.189-2.586 5.775-5.776 5.775z"/>
   <path d="m708.89 463.56c-1.27 0-2.549-0.417-3.615-1.274l-49.004-39.396c-2.485-1.998-2.882-5.634-0.882-8.119 1.998-2.486 5.633-2.881 8.119-0.883l49.005 39.396c2.486 1.998 2.88 5.633 0.881 8.118-1.14 1.419-2.814 2.158-4.504 2.158z"/>
  </g>
  <g fill="#ebebeb">
   <path d="m770.48 390.06h-31.416c-3.188 0-5.776-2.586-5.776-5.775s2.589-5.775 5.776-5.775h31.416c3.189 0 5.776 2.586 5.776 5.775s-2.587 5.775-5.776 5.775z"/>
   <path d="m739.06 463.56c-3.188 0-5.776-2.586-5.776-5.775v-73.5c0-3.189 2.589-5.775 5.776-5.775 3.189 0 5.776 2.586 5.776 5.775v73.5c0 3.189-2.587 5.775-5.776 5.775z"/>
   <path d="m770.48 463.56h-31.414c-3.188 0-5.776-2.586-5.776-5.775s2.589-5.775 5.776-5.775h31.414c3.191 0 5.775 2.586 5.775 5.775s-2.584 5.775-5.775 5.775z"/>
   <path d="m760.68 412.96h-21.615c-3.188 0-5.776-2.585-5.776-5.774s2.589-5.774 5.776-5.774h21.615c3.189 0 5.773 2.585 5.773 5.774s-2.584 5.774-5.773 5.774z"/>
   <path d="m802.02 418.15c9.266 0 16.802 7.535 16.802 16.799 0 9.265-7.536 16.801-16.802 16.801-9.262 0-16.798-7.536-16.798-16.801 0-9.263 7.536-16.799 16.798-16.799m0-11.55c-15.656 0-28.349 12.693-28.349 28.35 0 15.659 12.692 28.351 28.349 28.351 15.659 0 28.35-12.691 28.35-28.351-1e-3 -15.657-12.691-28.35-28.35-28.35z"/>
   <path d="m824.95 463.56c-3.188 0-5.776-2.586-5.776-5.775v-73.5c0-3.189 2.589-5.775 5.776-5.775 3.189 0 5.776 2.586 5.776 5.775v73.5c0 3.189-2.587 5.775-5.776 5.775z"/>
  </g>
 </g>
</svg>
